<svg xmlns="http://www.w3.org/2000/svg" version="1.1" xmlns:xlink="http://www.w3.org/1999/xlink" width="1000" height="1000"><g clip-path="url(#SvgjsClipPath1168)"><rect width="1000" height="1000" fill="#ffffff"></rect><g transform="matrix(2.450980392156863,0,0,2.450980392156863,-5.684341886080802e-14,-5.684341886080802e-14)"><svg xmlns="http://www.w3.org/2000/svg" version="1.1" xmlns:xlink="http://www.w3.org/1999/xlink" width="408" height="408"><svg width="408" height="408" viewBox="0 0 408 408" fill="none" xmlns="http://www.w3.org/2000/svg">
<rect x="6.10352e-05" width="408" height="408" rx="31" fill="#FFF4E4"></rect>
<rect x="6.10352e-05" width="408" height="408" rx="31" stroke="#FFF3E8"></rect>
<circle cx="132" cy="102" r="14" fill="#F54A00"></circle>
<path d="M261.448 114.512C257.029 114.513 253.447 110.931 253.448 106.512L253.45 98.7982C253.451 94.3806 257.033 90.799 261.451 90.798L301.505 90.7884C305.924 90.7873 309.505 94.3692 309.504 98.7882L309.502 106.502C309.501 110.919 305.919 114.501 301.502 114.502L261.448 114.512Z" fill="black"></path>
<path d="M199.965 160.5L215 181.845L215 234.5L199.965 209L199.965 160.5Z" fill="black"></path>
<rect x="150" y="291" width="124" height="20" fill="black"></rect>
</svg></svg></g></g><defs><clipPath id="SvgjsClipPath1168"><rect width="1000" height="1000" x="0" y="0" rx="500" ry="500"></rect></clipPath></defs></svg>