<svg xmlns="http://www.w3.org/2000/svg" version="1.1" xmlns:xlink="http://www.w3.org/1999/xlink" xmlns:svgjs="http://svgjs.dev/svgjs" width="1000" height="1000"><g clip-path="url(#SvgjsClipPath1140)"><rect width="1000" height="1000" fill="#ffffff"></rect><g transform="matrix(25,0,0,25,100,100)"><svg xmlns="http://www.w3.org/2000/svg" version="1.1" xmlns:xlink="http://www.w3.org/1999/xlink" xmlns:svgjs="http://svgjs.dev/svgjs" width="32" height="32"><svg xmlns="http://www.w3.org/2000/svg" width="32" height="32" viewBox="0 0 32 32"><!-- Icon from Fluent Emoji Flat by Microsoft Corporation - https://github.com/microsoft/fluentui-emoji/blob/main/LICENSE --><g fill="none"><path fill="#E19747" d="M5 4.5A1.5 1.5 0 0 1 6.5 3h19A1.5 1.5 0 0 1 27 4.5v24a1.5 1.5 0 0 1-1.5 1.5h-19A1.5 1.5 0 0 1 5 28.5z"></path><path fill="#F3EEF8" d="M25 6a1 1 0 0 0-1-1H8a1 1 0 0 0-1 1v21a1 1 0 0 0 1 1h10.586c.147 0 .29-.032.421-.093l.321-.783l.632-4.086l4.457-.783l.49-.247a1 1 0 0 0 .093-.422z"></path><path fill="#CDC4D6" d="M24.91 22H20a1 1 0 0 0-1 1v4.91a1 1 0 0 0 .293-.203l5.414-5.414A1 1 0 0 0 24.91 22"></path><path fill="#9B9B9B" d="M18 4a2 2 0 1 0-4 0h-1a2 2 0 0 0-2 2v1.5a.5.5 0 0 0 .5.5h9a.5.5 0 0 0 .5-.5V6a2 2 0 0 0-2-2zm-1 0a1 1 0 1 1-2 0a1 1 0 0 1 2 0m-8 8.5a.5.5 0 0 1 .5-.5h13a.5.5 0 0 1 0 1h-13a.5.5 0 0 1-.5-.5m0 3a.5.5 0 0 1 .5-.5h13a.5.5 0 0 1 0 1h-13a.5.5 0 0 1-.5-.5m.5 2.5a.5.5 0 0 0 0 1h13a.5.5 0 0 0 0-1zM9 21.5a.5.5 0 0 1 .5-.5h8a.5.5 0 0 1 0 1h-8a.5.5 0 0 1-.5-.5"></path></g></svg></svg></g></g><defs><clipPath id="SvgjsClipPath1140"><rect width="1000" height="1000" x="0" y="0" rx="200" ry="200"></rect></clipPath></defs></svg>